<svg xmlns="http://www.w3.org/2000/svg" viewBox="0 0 120 100" fill="none">
  <!-- Body -->
  <path d="M60 8 C28 8 8 35 12 60 C14 72 18 82 30 90 C38 95 48 97 60 97 C72 97 82 95 90 90 C102 82 106 72 108 60 C112 35 92 8 60 8Z" fill="#C4A8D8" stroke="#4A3860" stroke-width="3.5" stroke-linejoin="round"/>
  <!-- Highlight blob left -->
  <ellipse cx="38" cy="28" rx="10" ry="7" fill="#D8C4E8" opacity="0.7" transform="rotate(-15 38 28)"/>
  <!-- Highlight blob right -->
  <ellipse cx="72" cy="25" rx="8" ry="5" fill="#D8C4E8" opacity="0.5" transform="rotate(10 72 25)"/>
  <!-- Left eye -->
  <circle cx="47" cy="42" r="2.5" fill="#4A3860"/>
  <!-- Right eye -->
  <circle cx="67" cy="42" r="2.5" fill="#4A3860"/>
  <!-- Smile -->
  <path d="M50 52 C54 57 62 57 66 52" stroke="#8B6B5E" stroke-width="2.5" stroke-linecap="round" fill="none"/>
  <!-- Bottom bumps -->
  <ellipse cx="35" cy="90" rx="12" ry="5" fill="#B898CC" stroke="#4A3860" stroke-width="2"/>
  <ellipse cx="60" cy="94" rx="14" ry="5" fill="#B898CC" stroke="#4A3860" stroke-width="2"/>
  <ellipse cx="85" cy="90" rx="12" ry="5" fill="#B898CC" stroke="#4A3860" stroke-width="2"/>
</svg>
